<?xml version="1.0" encoding="UTF-8"?>
<svg version="1.1" xmlns="http://www.w3.org/2000/svg" width="222" height="62">
<path d="M0 0 C2.31 0 4.62 0 7 0 C7.67286212 2.41509441 8.33846012 4.83180356 9 7.25 C9.19078125 7.93191406 9.3815625 8.61382812 9.578125 9.31640625 C10.49957044 12.70600912 11 15.45778976 11 19 C11.66 19 12.32 19 13 19 C13.12246094 18.15179687 13.24492188 17.30359375 13.37109375 16.4296875 C14.02206903 12.87964842 14.97441716 9.56474576 16.0625 6.125 C16.42472656 4.97257812 16.78695312 3.82015625 17.16015625 2.6328125 C17.43730469 1.76398437 17.71445313 0.89515625 18 0 C20.31 0 22.62 0 25 0 C25.81436587 2.41605225 26.62655397 4.83279998 27.4375 7.25 C27.66759766 7.93191406 27.89769531 8.61382812 28.13476562 9.31640625 C29.21176956 12.5318093 30.17685147 15.70740587 31 19 C32.65 12.73 34.3 6.46 36 0 C38.64 0 41.28 0 44 0 C41.33333333 11.33333333 38.66666667 22.66666667 36 34 C33.36 34 30.72 34 28 34 C26.02 28.06 24.04 22.12 22 16 C19.73453148 19.39820279 18.61098372 22.83942278 17.375 26.6875 C17.14554688 27.38939453 16.91609375 28.09128906 16.6796875 28.81445312 C16.11570791 30.54164062 15.55730661 32.27064782 15 34 C12.69 34 10.38 34 8 34 C5.69391533 27.47862106 3.89379484 20.91875207 2.3125 14.1875 C2.08755859 13.26001953 1.86261719 12.33253906 1.63085938 11.37695312 C1.41880859 10.48298828 1.20675781 9.58902344 0.98828125 8.66796875 C0.79790283 7.86641357 0.60752441 7.0648584 0.41137695 6.23901367 C0 4 0 4 0 0 Z " fill="#3ABEEB" transform="translate(71,13)"/>
<path d="M0 0 C1.9453125 0.77734375 1.9453125 0.77734375 4.125 1.9375 C5.21167969 2.50791016 5.21167969 2.50791016 6.3203125 3.08984375 C6.87460937 3.39019531 7.42890625 3.69054687 8 4 C8.33 2.68 8.66 1.36 9 0 C17.91 0 26.82 0 36 0 C32.08494927 5.22006764 28.94487298 9.26109313 24.375 13.625 C20.61936341 17.21231674 17.73274552 20.62504121 15 25 C17.72943537 25.05416741 20.45778564 25.09375225 23.1875 25.125 C23.95642578 25.14175781 24.72535156 25.15851562 25.51757812 25.17578125 C29.8149434 25.21266851 33.07901831 24.9958504 37 23 C36.01 25.64 35.02 28.28 34 31 C25.09 30.67 16.18 30.34 7 30 C8.49940464 27.00119072 9.50615059 25.20630307 11.609375 22.79296875 C12.11726563 22.20580078 12.62515625 21.61863281 13.1484375 21.01367188 C13.67695313 20.41103516 14.20546875 19.80839844 14.75 19.1875 C15.26304688 18.59646484 15.77609375 18.00542969 16.3046875 17.39648438 C17.28419082 16.26808671 18.26539982 15.14116524 19.24902344 14.01635742 C21.84767062 11.02385504 24.42069468 8.00918954 27 5 C17.43 5 7.86 5 -2 5 C-1.67 5.99 -1.34 6.98 -1 8 C1.40545638 9.20272819 2.94996953 9.10071472 5.625 9.0625 C6.44226562 9.05347656 7.25953125 9.04445313 8.1015625 9.03515625 C8.72804688 9.02355469 9.35453125 9.01195312 10 9 C9.05350615 12.50794283 8.45518073 13.73684864 5.25 15.58984375 C3.08425361 16.48789964 0.91758544 17.38373581 -1.25 18.27734375 C-4.23803233 19.80895646 -4.23803233 19.80895646 -5.453125 23.015625 C-6.29783389 26.04246561 -6.29783389 26.04246561 -4.75 28.8125 C-3.18479302 31.08221107 -3.18479302 31.08221107 -1 32 C0.37548156 32.08308638 1.75485796 32.10736016 3.1328125 32.09765625 C3.93847656 32.09443359 4.74414062 32.09121094 5.57421875 32.08789062 C6.41597656 32.07951172 7.25773437 32.07113281 8.125 32.0625 C9.39923828 32.05573242 9.39923828 32.05573242 10.69921875 32.04882812 C12.79950909 32.03702874 14.8997633 32.01909306 17 32 C17 32.66 17 33.32 17 34 C6.38217523 39.98187311 6.38217523 39.98187311 0 39 C-4.21941581 37.37714776 -6.63072482 35.83726989 -9 32 C-9.92241824 26.96409504 -9.61476985 23.03742412 -7 18.625 C-6.34 17.75875 -5.68 16.8925 -5 16 C-5 14.68 -5 13.36 -5 12 C-5.66 11.34 -6.32 10.68 -7 10 C-6.82681928 6.70956624 -6.22633155 5.26283664 -4.0625 2.75 C-2 1 -2 1 0 0 Z " fill="#38B8E5" transform="translate(18,11)"/>
<path d="M0 0 C1.10794922 -0.01260864 2.21589844 -0.02521729 3.35742188 -0.03820801 C4.54916016 -0.03011108 5.74089844 -0.02201416 6.96875 -0.01367188 C8.19658203 -0.01749878 9.42441406 -0.02132568 10.68945312 -0.02526855 C13.28516459 -0.02799029 15.88090336 -0.02061099 18.4765625 -0.00390625 C22.45374599 0.01749738 26.42912282 -0.0037015 30.40625 -0.02929688 C32.92708733 -0.02665365 35.44792353 -0.02152878 37.96875 -0.01367188 C39.16048828 -0.0217688 40.35222656 -0.02986572 41.58007812 -0.03820801 C43.24200195 -0.01929504 43.24200195 -0.01929504 44.9375 0 C45.91138672 0.00318237 46.88527344 0.00636475 47.88867188 0.00964355 C51.27203984 0.67572011 52.44164441 1.75512815 54.46875 4.51757812 C54.96995544 6.99049377 54.96995544 6.99049377 54.97045898 9.78930664 C54.97983994 10.8404213 54.98922089 11.89153595 54.99888611 12.97450256 C54.98765213 14.10375656 54.97641815 15.23301056 54.96484375 16.39648438 C54.96629898 17.56009995 54.96775421 18.72371552 54.96925354 19.92259216 C54.96759411 22.38128159 54.95602807 24.83998135 54.93530273 27.29858398 C54.90633285 31.06929449 54.91469693 34.83860097 54.92773438 38.609375 C54.92149762 40.99675165 54.91310717 43.38412384 54.90234375 45.77148438 C54.90527939 46.9027626 54.90821503 48.03404083 54.91123962 49.19960022 C54.89855545 50.24756271 54.88587128 51.29552521 54.87280273 52.37524414 C54.86739975 53.29805679 54.86199677 54.22086945 54.85643005 55.17164612 C54.39275821 57.97742012 53.72362322 58.83399383 51.46875 60.51757812 C48.50478352 61.50556695 46.52785407 61.65529237 43.43408203 61.67871094 C42.40936798 61.68831848 41.38465393 61.69792603 40.32888794 61.70782471 C39.22262054 61.71207458 38.11635315 61.71632446 36.9765625 61.72070312 C35.26942581 61.72925323 35.26942581 61.72925323 33.52780151 61.73797607 C31.11864146 61.74742692 28.70946848 61.75396039 26.30029297 61.7578125 C22.61533063 61.76752127 18.93092523 61.79854594 15.24609375 61.83007812 C12.90625331 61.83660789 10.56640889 61.84185847 8.2265625 61.84570312 C7.12434357 61.85804993 6.02212463 61.87039673 4.88650513 61.88311768 C3.85548676 61.88011658 2.82446838 61.87711548 1.76220703 61.87402344 C0.85858429 61.87766907 -0.04503845 61.8813147 -0.9760437 61.8850708 C-4.38482502 61.394816 -7.08219495 59.96663317 -9.53125 57.51757812 C-9.64557289 55.88207918 -9.69084726 54.24169225 -9.70825195 52.60229492 C-9.72108719 51.55418137 -9.73392242 50.50606781 -9.74714661 49.42619324 C-9.75453354 48.28459244 -9.76192047 47.14299164 -9.76953125 45.96679688 C-9.777603 44.80130814 -9.78567474 43.6358194 -9.79399109 42.43501282 C-9.8078519 39.9626312 -9.81856507 37.49023028 -9.82641602 35.01782227 C-9.84362958 31.23156552 -9.88749951 27.44618135 -9.93164062 23.66015625 C-9.9417668 21.26237624 -9.95028314 18.86458877 -9.95703125 16.46679688 C-9.98329338 14.76350471 -9.98329338 14.76350471 -10.01008606 13.02580261 C-10.00716049 11.96823257 -10.00423492 10.91066254 -10.0012207 9.82104492 C-10.01002007 8.42658394 -10.01002007 8.42658394 -10.01899719 7.00395203 C-8.91150557 1.35832597 -5.31495189 0.01736769 0 0 Z M-6.33511353 3.73666382 C-7.90820846 6.07882739 -7.91173783 7.58705431 -7.91943359 10.40039062 C-7.92889008 11.39151855 -7.93834656 12.38264648 -7.9480896 13.40380859 C-7.94201691 14.47260254 -7.93594421 15.54139648 -7.9296875 16.64257812 C-7.93255768 17.74102051 -7.93542786 18.83946289 -7.93838501 19.97119141 C-7.94042736 22.29460159 -7.93488563 24.61802891 -7.92236328 26.94140625 C-7.90631278 30.50364525 -7.92220698 34.06474954 -7.94140625 37.62695312 C-7.93942385 39.88216397 -7.93558024 42.13737411 -7.9296875 44.39257812 C-7.93576019 45.46137207 -7.94183289 46.53016602 -7.9480896 47.63134766 C-7.93863312 48.62247559 -7.92917664 49.61360352 -7.91943359 50.63476562 C-7.91704681 51.5072998 -7.91466003 52.37983398 -7.91220093 53.27880859 C-7.68230091 55.55586408 -7.68230091 55.55586408 -6.33511353 57.29849243 C-3.88885676 58.95171984 -2.22447709 58.89831695 0.71875 58.90576172 C1.78996094 58.9152182 2.86117188 58.92467468 3.96484375 58.93441772 C5.12113281 58.92834503 6.27742187 58.92227234 7.46875 58.91601562 C9.24958984 58.92032089 9.24958984 58.92032089 11.06640625 58.92471313 C13.57812985 58.92675589 16.08986928 58.92121135 18.6015625 58.90869141 C22.45348572 58.89264173 26.30435955 58.908534 30.15625 58.92773438 C32.59375232 58.92575198 35.03125399 58.92190839 37.46875 58.91601562 C39.20318359 58.92512466 39.20318359 58.92512466 40.97265625 58.93441772 C42.04386719 58.92496124 43.11507812 58.91550476 44.21875 58.90576172 C45.16234375 58.90337494 46.1059375 58.90098816 47.078125 58.89852905 C49.49280741 58.68639127 49.49280741 58.68639127 51.27261353 57.29849243 C52.84570846 54.95632886 52.84923783 53.44810194 52.85693359 50.63476562 C52.86639008 49.6436377 52.87584656 48.65250977 52.8855896 47.63134766 C52.87648056 46.02815674 52.87648056 46.02815674 52.8671875 44.39257812 C52.87149277 42.74491455 52.87149277 42.74491455 52.87588501 41.06396484 C52.87792736 38.74055466 52.87238563 36.41712734 52.85986328 34.09375 C52.84381278 30.531511 52.85970698 26.97040671 52.87890625 23.40820312 C52.87692385 21.15299228 52.87308024 18.89778214 52.8671875 16.64257812 C52.87326019 15.57378418 52.87933289 14.50499023 52.8855896 13.40380859 C52.87613312 12.41268066 52.86667664 11.42155273 52.85693359 10.40039062 C52.85335342 9.09158936 52.85335342 9.09158936 52.84970093 7.75634766 C52.61980091 5.47929217 52.61980091 5.47929217 51.27261353 3.73666382 C48.82635676 2.08343641 47.16197709 2.1368393 44.21875 2.12939453 C43.14753906 2.11993805 42.07632813 2.11048157 40.97265625 2.10073853 C39.81636719 2.10681122 38.66007812 2.11288391 37.46875 2.11914062 C35.68791016 2.11483536 35.68791016 2.11483536 33.87109375 2.11044312 C31.35937015 2.10840036 28.84763072 2.1139449 26.3359375 2.12646484 C22.48401428 2.14251452 18.63314045 2.12662225 14.78125 2.10742188 C12.34374768 2.10940427 9.90624601 2.11324786 7.46875 2.11914062 C5.73431641 2.11003159 5.73431641 2.11003159 3.96484375 2.10073853 C2.89363281 2.11019501 1.82242187 2.11965149 0.71875 2.12939453 C-0.69664063 2.1329747 -0.69664063 2.1329747 -2.140625 2.1366272 C-4.55530741 2.34876498 -4.55530741 2.34876498 -6.33511353 3.73666382 Z " fill="#DB7328" transform="translate(9.53125,-0.517578125)"/>
<path d="M0 0 C2.31 0 4.62 0 7 0 C7.33 5.94 7.66 11.88 8 18 C12.63060745 13.59798099 12.63060745 13.59798099 14.75 10.6875 C18.23531936 8.07351048 21.78951598 8.67611661 26 9 C24.52278578 12.45201639 22.56205999 14.64961936 19.875 17.25 C19.15054688 17.95640625 18.42609375 18.6628125 17.6796875 19.390625 C17.12539062 19.92171875 16.57109375 20.4528125 16 21 C17.53205686 24.67862004 19.76903549 26.94486742 22.625 29.6875 C24.09945191 31.10846233 25.5624357 32.54173005 27 34 C27 34.33 27 34.66 27 35 C23.44007587 35.57418131 21.4382361 35.85578351 18 35 C14.23613925 32.03264091 11.11041632 28.63639486 8 25 C7.67 28.3 7.34 31.6 7 35 C4.69 35 2.38 35 0 35 C0 23.45 0 11.9 0 0 Z " fill="#3ABDEB" transform="translate(169,12)"/>
<path d="M0 0 C3.71650288 2.19334596 6.06645589 3.89424372 7.64453125 8.015625 C8.36773892 12.64079034 8.05667085 16.15964275 6.01953125 20.390625 C2.23708311 24.57122557 -1.21495541 26.15904607 -6.79296875 26.453125 C-11.66786844 26.27226869 -14.44262292 24.91113091 -18.35546875 22.015625 C-21.56880923 18.38765994 -21.87859028 14.91714959 -21.70703125 10.23046875 C-20.99328642 5.73387632 -18.54178938 3.06237849 -15.23046875 0.140625 C-10.17436467 -1.83785051 -5.06861121 -2.11822558 0 0 Z M-14.35546875 10.015625 C-14.42172286 13.8583633 -14.17446294 16.00763216 -11.73046875 19.015625 C-8.2057273 20.49972666 -5.98735899 20.07217489 -2.35546875 19.015625 C0.22548062 16.19271163 0.65842684 14.71040472 0.58203125 10.890625 C-0.14410392 7.97767293 -0.14410392 7.97767293 -2.10546875 6.140625 C-7.68785745 3.34943065 -10.79954487 5.10008317 -14.35546875 10.015625 Z " fill="#39BCEA" transform="translate(139.35546875,21.984375)"/>
<path d="M0 0 C2.5625 1.5 2.5625 1.5 4 3 C3.1875 4.9375 3.1875 4.9375 2 7 C-1.28976808 8.09658936 -2.71303767 7.79953138 -6 7 C-3.65762807 8.80182456 -1.29680078 10.45501126 1.1875 12.0625 C4 14 4 14 5 16 C5.3125 18.875 5.3125 18.875 5 22 C2.68785415 24.85164655 0.72173589 26.76321903 -2.98828125 27.2734375 C-7.58437935 27.4742754 -9.35809104 27.52400732 -13.0625 24.5 C-13.701875 23.675 -14.34125 22.85 -15 22 C-14.01 20.68 -13.02 19.36 -12 18 C-11.16855469 18.2165625 -11.16855469 18.2165625 -10.3203125 18.4375 C-9.59585938 18.623125 -8.87140625 18.80875 -8.125 19 C-7.40570313 19.185625 -6.68640625 19.37125 -5.9453125 19.5625 C-4.00710683 20.07313965 -4.00710683 20.07313965 -2 20 C-4.74529741 17.03887732 -7.80106478 15.21585752 -11.2578125 13.18359375 C-13 12 -13 12 -14 10 C-14.375 7.125 -14.375 7.125 -14 4 C-10.1824065 -0.67963074 -5.6507209 -0.91718791 0 0 Z " fill="#38B9E6" transform="translate(212,21)"/>
<path d="M0 0 C5 0 10 0 15 0 C14.25 2.9375 14.25 2.9375 13 6 C10.9375 6.6875 10.9375 6.6875 9 7 C7.76240177 10.71279469 7.64391103 14.31306346 7.4375 18.1875 C7.39431641 18.93708984 7.35113281 19.68667969 7.30664062 20.45898438 C7.20077315 22.30578375 7.0999024 24.15286834 7 26 C4.69 26 2.38 26 0 26 C0 17.42 0 8.84 0 0 Z " fill="#39BBE8" transform="translate(151,21)"/>
<path d="M0 0 C1.22496293 1.8374444 2.40435984 3.70762973 3.5 5.625 C4.78026262 8.1057227 4.78026262 8.1057227 7 9 C8.37548156 9.08308638 9.75485796 9.10736016 11.1328125 9.09765625 C11.93847656 9.09443359 12.74414062 9.09121094 13.57421875 9.08789062 C14.83685547 9.07532227 14.83685547 9.07532227 16.125 9.0625 C17.39923828 9.05573242 17.39923828 9.05573242 18.69921875 9.04882812 C20.79950909 9.03702874 22.8997633 9.01909306 25 9 C25 9.66 25 10.32 25 11 C14.38217523 16.98187311 14.38217523 16.98187311 8 16 C3.94097333 14.4388359 0.93900589 12.98573434 -1 9 C-1.29084532 6.24235544 -1.183163 3.79323574 -1 1 C-0.67 0.67 -0.34 0.34 0 0 Z " fill="#3AC0EF" transform="translate(10,34)"/>
<path d="M0 0 C0.33 0.99 0.66 1.98 1 3 C3.72943537 3.05416741 6.45778564 3.09375225 9.1875 3.125 C9.95642578 3.14175781 10.72535156 3.15851562 11.51757812 3.17578125 C15.8149434 3.21266851 19.07901831 2.9958504 23 1 C22.01 3.64 21.02 6.28 20 9 C11.09 8.67 2.18 8.34 -7 8 C-7 7.34 -7 6.68 -7 6 C-5.46875 4.4921875 -5.46875 4.4921875 -3.5 2.875 C-2.8503125 2.33617187 -2.200625 1.79734375 -1.53125 1.2421875 C-1.0259375 0.83226562 -0.520625 0.42234375 0 0 Z " fill="#35AED8" transform="translate(32,33)"/>
</svg>
